# xmcd
#
# Track frame offsets:
#	150
#	11815
#	24915
#	39750
#	53545
#	68205
#	82802
#	95707
#	112262
#	131655
#	147082
#	163300
#	175125
#	190777
#	200807
#	214330
#
# Disc length: 3000 seconds
#
# Revision: 3
# Processed by: cddbd v1.5.2PL0 Copyright (c) Steve Scherf et al.
# Submitted via: audiograbber 1.83.01
#
DISCID=e10bb610
DTITLE=Sammi Smith - The Best Of Sammi Smith
DYEAR=1996
DGENRE=Oldies
TTITLE0=Help Me Make It Through The Night
TTITLE1=He's Everywhere
TTITLE2=Then You Walk In
TTITLE3=For The Kids
TTITLE4=Kentucky
TTITLE5=I've Got To Have You
TTITLE6=The Toast Of 45
TTITLE7=I Miss You Most When You're Right Here
TTITLE8=City Of New Orleans
TTITLE9=The Rainbow In Daddy's Eyes
TTITLE10=Long Black Veil
TTITLE11=Cover Me
TTITLE12=Today I Started Loving You Again
TTITLE13=My Window Faces The South
TTITLE14=What A Lie
TTITLE15=The Letter
EXTD=
EXTT0=
EXTT1=
EXTT2=
EXTT3=
EXTT4=
EXTT5=
EXTT6=
EXTT7=
EXTT8=
EXTT9=
EXTT10=
EXTT11=
EXTT12=
EXTT13=
EXTT14=
EXTT15=
PLAYORDER=
